<?xml version="1.0" encoding="UTF-8" standalone="no"?>
<svg
   xmlns:dc="http://purl.org/dc/elements/1.1/"
   xmlns:cc="http://creativecommons.org/ns#"
   xmlns:rdf="http://www.w3.org/1999/02/22-rdf-syntax-ns#"
   xmlns:svg="http://www.w3.org/2000/svg"
   xmlns="http://www.w3.org/2000/svg"
   id="svg921"
   version="1.1"
   viewBox="0 0 5.5435596 4.9726801"
   height="4.9726801"
   width="5.5435596">
  <defs
     id="defs915" />
  <g
     transform="translate(-104.57345,-196.9958)"
     id="layer1">
    <path
       id="path1044-1"
       d="m 107.0603,201.75688 c -0.65445,-0.49453 -1.0493,-0.83148 -1.47814,-1.26146 -0.44292,-0.44407 -0.72249,-0.81075 -0.89117,-1.16887 -0.10079,-0.21396 -0.12781,-0.35173 -0.1143,-0.5828 0.0449,-0.76707 0.70633,-1.58124 1.40674,-1.73145 0.0554,-0.0119 0.17217,-0.017 0.26657,-0.0119 0.29632,0.0164 0.5008,0.11589 0.75307,0.36656 0.0873,0.0867 0.19936,0.22218 0.24898,0.30099 l 0.0902,0.14323 0.093,-0.14323 c 0.0511,-0.0788 0.16884,-0.2186 0.26158,-0.31068 0.25468,-0.25288 0.4934,-0.36147 0.79465,-0.36147 0.55287,0 1.12761,0.43823 1.44434,1.10129 0.2212,0.46308 0.23959,0.86604 0.0567,1.24378 -0.30655,0.63331 -1.00451,1.36469 -2.14568,2.24843 -0.16331,0.12646 -0.34407,0.26355 -0.40169,0.30458 l -0.10476,0.0746 z"
       style="opacity:1;fill:#ffffff;fill-opacity:1;stroke:none;stroke-width:0.00701395;stroke-linecap:round;stroke-linejoin:round;stroke-miterlimit:4;stroke-dasharray:none;stroke-opacity:1" />
  </g>
</svg>
